<?xml version="1.0" encoding="UTF-8"?><svg id="Layer_1" xmlns="http://www.w3.org/2000/svg" viewBox="0 0 28 28"><defs><style>.cls-1{fill:#7d7d7d;}</style></defs><path class="cls-1" d="M2.6,12.98c0,2.16,1.15,3.83,2.64,3.83s2.65-1.67,2.65-3.83-1.16-3.82-2.65-3.82-2.64,1.68-2.64,3.82ZM7.83,6.75c0,2.14,1.17,3.81,2.65,3.81s2.66-1.68,2.66-3.81-1.16-3.83-2.66-3.83-2.65,1.67-2.65,3.83Zm7.03,0c0,2.13,1.15,3.81,2.65,3.81s2.65-1.67,2.65-3.81-1.17-3.83-2.65-3.83-2.65,1.67-2.65,3.83Zm5.24,6.23c0,2.15,1.16,3.83,2.65,3.83s2.64-1.67,2.64-3.83-1.15-3.82-2.64-3.82-2.65,1.68-2.65,3.82ZM5.89,21.28c0,2.22,1.49,3.8,3.67,3.8,1.07,0,1.85-.3,2.59-.55,.59-.21,1.16-.4,1.85-.4s1.25,.19,1.85,.4c.73,.25,1.51,.55,2.58,.55,2.19,0,3.68-1.58,3.68-3.8,0-1.86-1.12-2.82-2.17-3.68-.59-.47-1.15-.91-1.53-1.5-.31-.47-.58-.98-.81-1.49-.77-1.64-1.39-3.22-3.6-3.22s-2.82,1.58-3.59,3.21c-.24,.52-.5,1.02-.8,1.48-.39,.59-.96,1.05-1.54,1.52-1.05,.86-2.17,1.82-2.17,3.68Z"/></svg>