<?xml version="1.0" encoding="UTF-8"?><svg id="Layer_1" xmlns="http://www.w3.org/2000/svg" viewBox="0 0 1000 1103"><defs><style>.cls-1{fill:#363e43;}.cls-2{fill:#353c42;}.cls-3{fill:#fdfdfd;}.cls-4{fill:#343c42;}.cls-5{fill:#363e44;}.cls-6{fill:#353d43;}.cls-7{fill:#fefefe;}</style></defs><path class="cls-7" d="M439.93,0H1000V1103H0V0H417.92c.05,5.33-.24,10.69,.26,15.97,.5,5.25-.87,7.61-6.47,9.21-28.56,8.15-36.98,46.31-16.97,64.76,5.43,5.01,11.95,8.9,18.22,12.92,8.65,5.53,17.82,10.29,26.22,16.16,5.39,3.77,5.48,9.94,3.67,15.92-1.7,5.65-6.04,8.45-11.51,8.86-4.92,.37-10.27,.75-14.79-.77-8.07-2.72-15.67-6.86-23.95-10.63-4.27,6.53-9.05,13.84-13.91,21.27,10.53,9.09,22.48,14.15,35.66,16.37,3.1,.52,4.21,1.59,4.09,4.77-.24,6.08-.07,12.17-.07,18.21h21.71c0-5.81,.3-11.32-.09-16.77-.34-4.65,.79-7.08,5.81-8.29,7.72-1.86,14.42-6.01,19.55-12.26,16.73-20.4,12.63-48.4-9.62-62.81-8.05-5.22-17.01-9.02-25.44-13.68-3.76-2.08-7.57-4.3-10.75-7.13-6.91-6.17-4.66-18.14,4.1-21.21,3.78-1.32,8.14-1.52,12.2-1.34,8.42,.36,14.63,5.65,21.08,10.84,5.7-6.37,11.22-12.54,16.86-18.84-9.13-10.22-20.19-16.68-33.86-18.78V0Zm414.88,1002.09c.3-.39,.77-.86,1.08-1.42,29.06-52.5,58.13-105,87.05-157.57,.61-1.11,.19-3.56-.68-4.58-18.02-21.1-37.72-40.44-60.75-56.09-27.82-18.91-58.15-30.59-92.17-31.55-26.53-.74-51.95,4.65-76.71,13.63-39.35,14.26-75.29,35.17-109.98,58.16-37.29,24.71-77.64,40.16-122.43,42.56-24.44,1.31-48.96,1.3-73.44,1.64-26.79,.37-53.2,2.99-78.4,12.84-3.1,1.21-5.48,.96-8.39-.42-32.3-15.36-65.71-27.19-101.4-31.76-4.88-.62-10.7-.41-14.37-3.01-41.68-29.47-85.33-55.45-132.02-76.16-16.87-7.48-34.38-9.29-52.05-3.35-16.79,5.64-22.23,20.68-13.17,35.94,2.94,4.96,6.4,9.95,10.69,13.71,18.88,16.58,37.63,33.39,57.41,48.86,36.95,28.9,73.57,58.42,112.21,84.94,42.64,29.26,89.17,52.27,134.9,76.43,41.3,21.82,82.71,43.45,123.88,65.51,9.87,5.29,19.95,8.99,31.1,9.81,28.53,2.1,55.05-5.07,80.47-17.4,47.56-23.06,94.94-46.48,142.78-68.94,26.47-12.42,53.84-22.84,82.53-29.31,12.96-2.92,25.49-3.35,37.95,2.82,10.97,5.43,22.47,9.79,33.94,14.71ZM428.08,269.26c-.56,10.84,1.58,21.17,5.41,30.93,7.94,20.25,16.92,40.08,24.75,60.37,4.04,10.48,7.5,21.38,9.48,32.4,3.03,16.8-4.06,31.38-13.36,44.75-14.83,21.3-30.49,42.03-45.02,63.53-20.4,30.18-36.52,62.34-39.85,99.39-2.3,25.61,1.4,50.28,15.01,72.56,7.62,12.48,16.7,24.06,24.45,36.46,6.31,10.09,12.51,20.44,17.13,31.36,4.61,10.88,1.22,20.86-8.06,28.57-2.55,2.12-4.85,4.56-7.21,6.91-20.8,20.79-31.89,46.86-39.71,74.45,8.05,1.18,16.28-2.76,20.86-10.53,2.87-4.87,5.2-10.1,8.44-14.7,3.89-5.52,7.83-11.3,12.92-15.58,7.61-6.4,13.73-5.45,20.44,1.86,4.71,5.14,8.51,11.22,13.64,15.86,10.19,9.22,13.66,11.31,21.22,10.43-1.7-.93-3-1.57-4.23-2.32-9.49-5.83-16.87-12.78-13.69-25.46,.26-1.05-.36-2.3-.28-3.44,.13-1.88-.03-4.94,.89-5.36,1.55-.69,4.16-.24,5.79,.68,8.93,5.07,18.33,8.29,29.05,8.24-1.62-2.46-3.52-4.59-5.61-6.51-5.39-4.95-11.29-9.43-16.13-14.86-2.96-3.32-5.39-7.86-6.17-12.19-1.17-6.47-.66-13.25-.92-19.9-.29-7.46,.08-15.04-1.08-22.37-3.37-21.18-14.39-38.45-29.36-53.29-21.65-21.48-32.24-47.22-31.02-77.76,.97-24.32,8.26-47.01,17.69-69.17,13.3-31.25,31.41-59.66,51.06-87.21,10.39-14.57,18.42-30.17,17.22-48.88-.82-12.77-4.19-24.99-9.57-36.48-14.48-30.94-29.36-61.69-44.19-92.73Zm210.34,244.82c-8.17,.9-15.67,1.17-22.92,2.63-31.05,6.27-60.99,16.36-90.14,28.54-24.24,10.13-46.9,23.17-65.12,42.6-12.21,13.02-22.32,27.29-23.88,45.99-2.06,24.74,5.76,47.76,30.07,60.21,4,2.05,6.89,2.12,10.06-1.42,6.78-7.56,14.19-14.56,20.73-22.3,12.88-15.25,25.1-31.06,38.1-46.2,5.58-6.5,12.41-11.92,19.02-18.17-1.49-.71-1.67-.88-1.79-.84-.77,.24-1.55,.48-2.29,.81-17.76,7.77-33.11,19.1-47.02,32.4-8.78,8.4-17.28,17.11-25.77,25.81-2.91,2.99-5.8,3.15-9.4,1.51-5.94-2.69-9.68-6.95-10.4-13.52-1.24-11.36,2.31-21.77,7.23-31.64,7.79-15.63,21.08-25.94,35.63-34.74,25.94-15.7,54.35-25.59,83.05-34.71,8.5-2.7,17.08-5.17,26.75-8.09-.66,8.58-.81,16.21-1.9,23.71-4.2,28.97-15.06,55.48-31.46,79.54-25.22,37-56.79,64.86-104.61,68.88,1.2,.46,1.89,.82,2.63,1.01,30.7,8.08,58.69,2.07,84.12-16.5,24.33-17.77,39.53-42.34,50.84-69.62,11.53-27.81,17.51-57.13,23.06-86.56,1.78-9.44,3.48-18.89,5.4-29.34Zm-255.39-53.43l1.1-1.14c2.49-1.15,4.91-2.54,7.5-3.4,8.2-2.75,15.11-7.17,18.93-15.16,2.21-4.63,3.9-9.55,5.4-14.47,2.29-7.53,1.81-15.11-.4-22.64-8.57-29.17-27.04-50.11-53.94-63.51-30.78-15.33-63.85-24.47-96.64-34.25-7.54-2.25-15.49-3.15-24.01-4.82,6.7,31.21,11.56,61.58,21.63,90.77,8.81,25.52,22.57,47.73,42.66,65.88,16.35,14.76,35.21,23.17,57.6,22.02,8.02-.41,15.9-1.84,22.88-6.29-19.05,.1-36.31-5.49-51.63-16.27-37.23-26.19-57.94-62.86-66.14-107.03-1.36-7.36-1.29-14.98-1.96-23.45,9.78,3.02,18.23,5.47,26.56,8.24,25.27,8.39,50.32,17.33,72.89,31.88,15.49,9.99,28.18,22.25,32.84,40.99,2.77,11.17-.84,20.81-9.54,25.42-3.38,1.79-6.12,1.91-8.94-.93-4.82-4.84-9.81-9.5-14.7-14.27-13.28-12.97-27.5-24.67-44.32-32.86-1.64-.8-3.51-1.12-4.8-1.52,11.43,12.38,23.18,24.56,34.3,37.29,11.25,12.89,21.86,26.33,32.75,39.53Zm525.46,575.04c29.73-54.15,59.29-107.98,88.97-162.04-13.96-8.58-27.47-16.89-41.32-25.41-30.79,55.2-61.37,110.02-92.14,165.2,14.93,7.46,29.57,14.78,44.5,22.25ZM564.48,282.53l-.43-.63c-1,.39-2.11,.61-2.98,1.2-7.27,4.97-14.91,9.51-21.64,15.13-9.32,7.78-17.8,16.55-26.9,24.61-6.95,6.16-13.98,4.07-17.17-4.81-2.25-6.26-1.55-12.53,.78-18.57,5.53-14.37,16.4-24.02,29.04-31.92,16.75-10.47,35.08-17.42,53.78-23.44,10.06-3.24,20.22-6.15,30.86-9.37-.12,2.62-.15,4.43-.3,6.23-2.6,31.02-14.82,58.17-34.26,82.03-17.71,21.72-39.38,37.22-68.92,39.22,.68,.46,1.02,.8,1.43,.95,1.4,.52,2.8,1.07,4.25,1.45,15.25,4.01,30.03,2.55,44.32-4.01,20.51-9.41,33.78-25.94,44.09-45.27,11.97-22.43,17.66-46.88,22.52-71.56,2-10.15,3.8-20.34,5.79-31.01-2.4,.32-4.04,.48-5.66,.76-29.35,5.07-57.33,14.63-84.57,26.37-17.87,7.7-34.83,17.25-46.83,33.06-20.95,27.59-16.98,44.54-2.31,66.52,1.77,2.66,4.66,4.78,7.43,6.52,6.76,4.27,7.27,4.07,12.89-1.69,1.4-1.43,2.8-2.86,4.1-4.37,13.01-15.15,25.93-30.38,39.03-45.46,3.64-4.19,7.76-7.97,11.66-11.95Zm1.26-1.11c-.11-.11-.23-.3-.34-.3-.11,0-.23,.19-.34,.29l.51,.32,.17-.32Z"/><path class="cls-2" d="M439.93,0V22.74c13.67,2.1,24.73,8.57,33.86,18.78-5.64,6.3-11.16,12.47-16.86,18.84-6.45-5.18-12.67-10.47-21.08-10.84-4.06-.17-8.43,.02-12.2,1.34-8.76,3.07-11.01,15.04-4.1,21.21,3.18,2.84,6.99,5.05,10.75,7.13,8.43,4.66,17.39,8.46,25.44,13.68,22.25,14.41,26.35,42.41,9.62,62.81-5.12,6.25-11.82,10.4-19.55,12.26-5.01,1.21-6.14,3.64-5.81,8.29,.4,5.45,.09,10.96,.09,16.77h-21.71c0-6.04-.17-12.13,.07-18.21,.12-3.18-.99-4.24-4.09-4.77-13.18-2.22-25.13-7.28-35.66-16.37,4.86-7.43,9.64-14.74,13.91-21.27,8.28,3.77,15.88,7.92,23.95,10.63,4.52,1.52,9.88,1.14,14.79,.77,5.47-.42,9.8-3.22,11.51-8.86,1.81-5.99,1.72-12.16-3.67-15.92-8.4-5.87-17.57-10.63-26.22-16.16-6.27-4.01-12.79-7.91-18.22-12.92-20.01-18.45-11.6-56.61,16.97-64.76,5.59-1.6,6.96-3.96,6.47-9.21-.5-5.29-.21-10.65-.26-15.97h22Z"/><path class="cls-6" d="M854.81,1002.09c-11.47-4.92-22.97-9.27-33.94-14.71-12.45-6.17-24.98-5.75-37.95-2.82-28.69,6.47-56.06,16.89-82.53,29.31-47.84,22.45-95.22,45.88-142.78,68.94-25.42,12.32-51.93,19.49-80.47,17.4-11.15-.82-21.23-4.52-31.1-9.81-41.17-22.06-82.58-43.69-123.88-65.51-45.73-24.15-92.26-47.16-134.9-76.43-38.64-26.52-75.26-56.03-112.21-84.94-19.78-15.47-38.52-32.28-57.41-48.86-4.29-3.76-7.74-8.75-10.69-13.71-9.05-15.26-3.62-30.3,13.17-35.94,17.68-5.94,35.19-4.14,52.05,3.35,46.7,20.71,90.34,46.69,132.02,76.16,3.67,2.6,9.49,2.39,14.37,3.01,35.7,4.56,69.11,16.4,101.4,31.76,2.9,1.38,5.28,1.64,8.39,.42,25.2-9.85,51.6-12.47,78.4-12.84,24.49-.34,49-.33,73.44-1.64,44.79-2.4,85.14-17.85,122.43-42.56,34.69-22.99,70.62-43.9,109.98-58.16,24.76-8.98,50.18-14.37,76.71-13.63,34.02,.95,64.35,12.64,92.17,31.55,23.03,15.66,42.73,35,60.75,56.09,.87,1.02,1.29,3.47,.68,4.58-28.93,52.57-57.99,105.07-87.05,157.57-.31,.56-.78,1.03-1.08,1.42Zm-565.25-117.15c-.12-.07-.64-.51-1.24-.75-22.42-9.14-45.46-16.3-69.56-18.96-12.3-1.36-22.91-4.72-33.25-12.17-38-27.38-78.56-50.55-121.47-69.43-11.89-5.23-24.45-6.44-37.08-2.72-7.62,2.24-9.11,5.67-4.63,12.03,3.98,5.66,8.6,11.15,13.9,15.55,29.43,24.46,58.78,49.04,88.9,72.63,25.01,19.59,49.8,39.93,76.9,56.29,45.93,27.73,93.44,52.85,140.58,78.54,35.03,19.09,70.45,37.47,105.84,55.89,7.74,4.03,15.77,8.53,24.17,10.07,24.03,4.41,47.32-.66,68.98-10.89,45.1-21.29,89.52-44.01,134.6-65.37,30.79-14.59,62.31-27.58,95.43-36.18,18.66-4.84,37.22-7.41,55.52,1.88,6.56,3.33,13.62,5.65,20.57,8.48,24.94-45.09,49.66-89.73,74.22-134.46,.62-1.14-.01-3.77-1-4.86-15.19-16.89-31.78-32.24-50.72-44.91-28.18-18.86-58.93-29.12-93.12-27.42-22.14,1.1-43.32,6.61-63.93,14.57-36.68,14.16-70.3,34.03-102.96,55.55-38.15,25.13-79.53,40.94-125.23,43.82-25.42,1.61-50.95,1.47-76.43,1.93-24.58,.44-48.91,2.32-72.21,11.02-11.43,4.26-21.51,10.6-29.1,20.27-6.69,8.52-4.44,17.73,5.24,22.81,2.2,1.16,4.5,2.24,6.88,2.92,8.15,2.3,16.28,4.77,24.56,6.51,17.04,3.57,34.13,5.56,51.44,.98,6.06-1.6,12.51-1.82,18.8-2.47,23.41-2.45,46.62,.16,69.72,3.38,42.79,5.96,85.36,5.05,127.84-2.53,12.82-2.29,12.72-2.27,17.79,9.98,1.09,2.63,.67,4.04-1.71,5.16-4.95,2.33-9.75,5.14-14.9,6.88-21.74,7.33-44.39,8.79-67.05,9.02-35.16,.37-70.33-.27-105.5,.07-16.8,.16-33.79,.28-50.35,2.75-25.02,3.74-49.11,1.82-72.72-6.73-15.54-5.63-29.82-13.4-39.83-27.14-9.64-13.23-10.85-27.5-2.82-41.74,4.03-7.15,9.76-13.33,14.95-20.27Z"/><path class="cls-6" d="M428.08,269.26c14.83,31.05,29.71,61.8,44.19,92.73,5.38,11.49,8.75,23.71,9.57,36.48,1.2,18.71-6.83,34.31-17.22,48.88-19.65,27.55-37.76,55.96-51.06,87.21-9.43,22.16-16.71,44.85-17.69,69.17-1.22,30.54,9.37,56.28,31.02,77.76,14.96,14.84,25.98,32.11,29.36,53.29,1.17,7.33,.8,14.9,1.08,22.37,.26,6.65-.25,13.42,.92,19.9,.79,4.33,3.21,8.87,6.17,12.19,4.84,5.43,10.75,9.9,16.13,14.86,2.09,1.92,3.99,4.05,5.61,6.51-10.72,.05-20.13-3.16-29.05-8.24-1.62-.92-4.24-1.37-5.79-.68-.93,.42-.76,3.47-.89,5.36-.08,1.14,.54,2.38,.28,3.44-3.17,12.68,4.21,19.63,13.69,25.46,1.23,.76,2.53,1.4,4.23,2.32-7.55,.89-11.02-1.21-21.22-10.43-5.13-4.64-8.93-10.72-13.64-15.86-6.7-7.32-12.83-8.26-20.44-1.86-5.09,4.28-9.04,10.07-12.92,15.58-3.24,4.6-5.57,9.83-8.44,14.7-4.58,7.77-12.8,11.71-20.86,10.53,7.82-27.59,18.91-53.66,39.71-74.45,2.35-2.35,4.65-4.79,7.21-6.91,9.28-7.71,12.66-17.68,8.06-28.57-4.62-10.92-10.82-21.26-17.13-31.36-7.75-12.4-16.83-23.99-24.45-36.46-13.61-22.28-17.31-46.95-15.01-72.56,3.33-37.05,19.45-69.2,39.85-99.39,14.53-21.5,30.2-42.23,45.02-63.53,9.3-13.37,16.39-27.95,13.36-44.75-1.99-11.02-5.44-21.92-9.48-32.4-7.83-20.29-16.81-40.12-24.75-60.37-3.83-9.76-5.97-20.09-5.41-30.93Z"/><path class="cls-6" d="M638.42,514.08c-1.92,10.45-3.62,19.91-5.4,29.34-5.55,29.42-11.54,58.75-23.06,86.56-11.31,27.28-26.51,51.85-50.84,69.62-25.42,18.57-53.42,24.58-84.12,16.5-.74-.19-1.44-.55-2.63-1.01,47.82-4.02,79.39-31.87,104.61-68.88,16.4-24.06,27.26-50.57,31.46-79.54,1.09-7.5,1.24-15.13,1.9-23.71-9.67,2.92-18.24,5.39-26.75,8.09-28.71,9.12-57.11,19-83.05,34.71-14.54,8.8-27.83,19.11-35.63,34.74-4.92,9.87-8.47,20.28-7.23,31.64,.72,6.57,4.45,10.83,10.4,13.52,3.61,1.63,6.49,1.47,9.4-1.51,8.49-8.7,16.99-17.41,25.77-25.81,13.92-13.31,29.26-24.63,47.02-32.4,.74-.32,1.52-.56,2.29-.81,.12-.04,.3,.13,1.79,.84-6.61,6.25-13.44,11.67-19.02,18.17-13,15.15-25.22,30.96-38.1,46.2-6.54,7.74-13.96,14.74-20.73,22.3-3.17,3.53-6.06,3.46-10.06,1.42-24.31-12.45-32.14-35.48-30.07-60.21,1.56-18.7,11.67-32.97,23.88-45.99,18.22-19.43,40.88-32.47,65.12-42.6,29.15-12.18,59.09-22.26,90.14-28.54,7.26-1.47,14.75-1.73,22.92-2.63Z"/><path class="cls-1" d="M383.03,460.65c-10.89-13.2-21.5-26.64-32.75-39.53-11.11-12.74-22.87-24.92-34.3-37.29,1.29,.4,3.16,.72,4.8,1.52,16.82,8.18,31.04,19.89,44.32,32.86,4.89,4.77,9.88,9.44,14.7,14.27,2.83,2.84,5.56,2.72,8.94,.93,8.7-4.61,12.32-14.25,9.54-25.42-4.66-18.75-17.35-31.01-32.84-40.99-22.56-14.55-47.62-23.49-72.89-31.88-8.33-2.77-16.78-5.21-26.56-8.24,.67,8.47,.6,16.09,1.96,23.45,8.19,44.17,28.91,80.84,66.14,107.03,15.32,10.78,32.58,16.37,51.63,16.27-6.98,4.45-14.86,5.87-22.88,6.29-22.39,1.16-41.25-7.25-57.6-22.02-20.1-18.15-33.86-40.36-42.66-65.88-10.07-29.18-14.93-59.56-21.63-90.77,8.52,1.67,16.47,2.57,24.01,4.82,32.79,9.78,65.86,18.92,96.64,34.25,26.89,13.4,45.36,34.34,53.94,63.51,2.21,7.54,2.7,15.11,.4,22.64-1.5,4.92-3.18,9.84-5.4,14.47-3.82,7.99-10.73,12.41-18.93,15.16-2.59,.87-5,2.25-7.5,3.4l-1.1,1.14Z"/><path class="cls-4" d="M908.48,1035.68c-14.93-7.46-29.57-14.78-44.5-22.25,30.78-55.18,61.36-110.01,92.14-165.2,13.85,8.52,27.37,16.83,41.32,25.41-29.68,54.06-59.24,107.88-88.97,162.04Z"/><path class="cls-5" d="M564.48,282.53c-3.9,3.97-8.02,7.75-11.66,11.95-13.09,15.08-26.02,30.3-39.03,45.46-1.3,1.52-2.71,2.94-4.1,4.37-5.62,5.76-6.13,5.96-12.89,1.69-2.76-1.75-5.66-3.87-7.43-6.52-14.67-21.98-18.64-38.93,2.31-66.52,12-15.81,28.96-25.36,46.83-33.06,27.25-11.73,55.22-21.29,84.57-26.37,1.62-.28,3.26-.44,5.66-.76-1.99,10.67-3.79,20.86-5.79,31.01-4.86,24.68-10.55,49.13-22.52,71.56-10.31,19.33-23.58,35.86-44.09,45.27-14.29,6.56-29.07,8.02-44.32,4.01-1.44-.38-2.84-.92-4.25-1.45-.41-.15-.76-.49-1.43-.95,29.54-2,51.21-17.5,68.92-39.22,19.45-23.86,31.66-51.01,34.26-82.03,.15-1.8,.18-3.61,.3-6.23-10.64,3.22-20.8,6.14-30.86,9.37-18.7,6.02-37.03,12.98-53.78,23.44-12.64,7.9-23.51,17.55-29.04,31.92-2.32,6.04-3.02,12.31-.78,18.57,3.18,8.87,10.21,10.97,17.17,4.81,9.1-8.06,17.58-16.83,26.9-24.61,6.73-5.62,14.37-10.17,21.64-15.13,.86-.59,1.98-.81,2.98-1.2l.43,.63Z"/><path class="cls-5" d="M565.74,281.42l-.17,.32-.51-.32c.11-.11,.23-.3,.34-.29,.11,0,.23,.19,.34,.3Z"/><path class="cls-3" d="M289.56,884.94c-5.2,6.94-10.93,13.12-14.95,20.27-8.02,14.24-6.82,28.51,2.82,41.74,10.01,13.73,24.29,21.51,39.83,27.14,23.62,8.55,47.7,10.47,72.72,6.73,16.55-2.47,33.54-2.59,50.35-2.75,35.16-.34,70.33,.3,105.5-.07,22.66-.24,45.32-1.7,67.05-9.02,5.15-1.74,9.95-4.55,14.9-6.88,2.38-1.12,2.79-2.54,1.71-5.16-5.07-12.25-4.96-12.27-17.79-9.98-42.48,7.58-85.06,8.49-127.84,2.53-23.1-3.22-46.31-5.83-69.72-3.38-6.29,.66-12.74,.87-18.8,2.47-17.32,4.59-34.4,2.6-51.44-.98-8.28-1.74-16.41-4.21-24.56-6.51-2.38-.67-4.68-1.76-6.88-2.92-9.67-5.08-11.92-14.29-5.24-22.81,7.59-9.67,17.67-16.01,29.1-20.27,23.3-8.69,47.63-10.58,72.21-11.02,25.48-.45,51.01-.32,76.43-1.93,45.69-2.89,87.08-18.69,125.23-43.82,32.66-21.51,66.28-41.39,102.96-55.55,20.62-7.96,41.79-13.48,63.93-14.57,34.19-1.69,64.94,8.57,93.12,27.42,18.94,12.68,35.53,28.02,50.72,44.91,.98,1.09,1.62,3.72,1,4.86-24.56,44.73-49.28,89.37-74.22,134.46-6.95-2.83-14.01-5.15-20.57-8.48-18.3-9.29-36.87-6.73-55.52-1.88-33.11,8.6-64.64,21.59-95.43,36.18-45.07,21.35-89.49,44.08-134.6,65.37-21.66,10.23-44.94,15.3-68.98,10.89-8.4-1.54-16.43-6.04-24.17-10.07-35.39-18.43-70.81-36.8-105.84-55.89-47.13-25.69-94.65-50.82-140.58-78.54-27.09-16.36-51.89-36.7-76.9-56.29-30.12-23.59-59.46-48.18-88.9-72.63-5.3-4.4-9.91-9.9-13.9-15.55-4.48-6.37-2.99-9.79,4.63-12.03,12.64-3.72,25.19-2.52,37.08,2.72,42.91,18.88,83.47,42.05,121.47,69.43,10.35,7.46,20.95,10.81,33.25,12.17,24.1,2.66,47.14,9.82,69.56,18.96,.6,.25,1.13,.68,1.24,.75Z"/></svg>